<?xml version="1.0" standalone="no"?><!DOCTYPE svg PUBLIC "-//W3C//DTD SVG 1.1//EN" "http://www.w3.org/Graphics/SVG/1.1/DTD/svg11.dtd"><svg xmlns:xlink="http://www.w3.org/1999/xlink" version="1.1" style="font-family:open sans;font-size:12px;" xmlns="http://www.w3.org/2000/svg" width="1040" height="410"><desc>Created with Highcharts 4.1.5</desc><defs><clipPath id="highcharts-67"><rect x="0" y="0" width="842" height="196"></rect></clipPath></defs><rect x="0" y="0" width="1040" height="410" strokeWidth="0" fill="#FFFFFF" class=" highcharts-background"></rect><g class="highcharts-grid" ></g><g class="highcharts-grid" ></g><g class="highcharts-grid" ><path fill="none" d="M 125 332.5 L 967 332.5" stroke="#D8D8D8" stroke-width="1"  opacity="1"></path><path fill="none" d="M 125 276.5 L 967 276.5" stroke="#D8D8D8" stroke-width="1"  opacity="1"></path><path fill="none" d="M 125 220.5 L 967 220.5" stroke="#D8D8D8" stroke-width="1"  opacity="1"></path><path fill="none" d="M 125 164.5 L 967 164.5" stroke="#D8D8D8" stroke-width="1"  opacity="1"></path></g><g class="highcharts-grid" ></g><g class="highcharts-axis" ><path fill="none" d="M 208.5 332 L 208.5 342" stroke="#C0D0E0" stroke-width="1" opacity="1"></path><path fill="none" d="M 292.5 332 L 292.5 342" stroke="#C0D0E0" stroke-width="1" opacity="1"></path><path fill="none" d="M 377.5 332 L 377.5 342" stroke="#C0D0E0" stroke-width="1" opacity="1"></path><path fill="none" d="M 461.5 332 L 461.5 342" stroke="#C0D0E0" stroke-width="1" opacity="1"></path><path fill="none" d="M 545.5 332 L 545.5 342" stroke="#C0D0E0" stroke-width="1" opacity="1"></path><path fill="none" d="M 629.5 332 L 629.5 342" stroke="#C0D0E0" stroke-width="1" opacity="1"></path><path fill="none" d="M 713.5 332 L 713.5 342" stroke="#C0D0E0" stroke-width="1" opacity="1"></path><path fill="none" d="M 798.5 332 L 798.5 342" stroke="#C0D0E0" stroke-width="1" opacity="1"></path><path fill="none" d="M 882.5 332 L 882.5 342" stroke="#C0D0E0" stroke-width="1" opacity="1"></path><path fill="none" d="M 967.5 332 L 967.5 342" stroke="#C0D0E0" stroke-width="1" opacity="1"></path><path fill="none" d="M 124.5 332 L 124.5 342" stroke="#C0D0E0" stroke-width="1" opacity="1"></path><path fill="none" d="M 125 332.5 L 967 332.5" stroke="#C0D0E0" stroke-width="1"  visibility="visible"></path></g><g class="highcharts-axis" ><path fill="none" d="M 208.5 136 L 208.5 126" stroke="#C0D0E0" stroke-width="1" opacity="1"></path><path fill="none" d="M 292.5 136 L 292.5 126" stroke="#C0D0E0" stroke-width="1" opacity="1"></path><path fill="none" d="M 377.5 136 L 377.5 126" stroke="#C0D0E0" stroke-width="1" opacity="1"></path><path fill="none" d="M 461.5 136 L 461.5 126" stroke="#C0D0E0" stroke-width="1" opacity="1"></path><path fill="none" d="M 545.5 136 L 545.5 126" stroke="#C0D0E0" stroke-width="1" opacity="1"></path><path fill="none" d="M 629.5 136 L 629.5 126" stroke="#C0D0E0" stroke-width="1" opacity="1"></path><path fill="none" d="M 713.5 136 L 713.5 126" stroke="#C0D0E0" stroke-width="1" opacity="1"></path><path fill="none" d="M 798.5 136 L 798.5 126" stroke="#C0D0E0" stroke-width="1" opacity="1"></path><path fill="none" d="M 882.5 136 L 882.5 126" stroke="#C0D0E0" stroke-width="1" opacity="1"></path><path fill="none" d="M 967.5 136 L 967.5 126" stroke="#C0D0E0" stroke-width="1" opacity="1"></path><path fill="none" d="M 124.5 136 L 124.5 126" stroke="#C0D0E0" stroke-width="1" opacity="1"></path><path fill="none" d="M 125 135.5 L 967 135.5" stroke="#C0D0E0" stroke-width="1"  visibility="visible"></path></g><g class="highcharts-axis" ><text x="1013.046875"  text-anchor="middle" transform="translate(0,0) rotate(90 1013.046875 234)" class=" highcharts-yaxis-title" style="color:#000000;fill:#000000;" visibility="visible" y="234"><tspan>Margarine consumed</tspan></text></g><g class="highcharts-axis" ><text x="27.234375"  text-anchor="middle" transform="translate(0,0) rotate(270 27.234375 234)" class=" highcharts-yaxis-title" style="color:#ba0f27;fill:#ba0f27;" visibility="visible" y="234"><tspan>Divorce rate in Maine</tspan></text></g><g class="highcharts-series-group" ><g class="highcharts-series" visibility="visible"  transform="translate(125,136) scale(1 1)" clip-path="url(#highcharts-67)"><path fill="none" d="M 42.1 22.400000000000034 C 42.1 22.400000000000034 92.62 46.48000000000001 126.30000000000001 56 C 159.98000000000002 65.52 176.82 60.480000000000004 210.5 70 C 244.18 79.52000000000001 261.02000000000004 100.80000000000003 294.70000000000005 103.60000000000001 C 328.38 106.39999999999999 345.22 103.60000000000001 378.90000000000003 106.39999999999999 C 412.58000000000004 109.19999999999997 429.4200000000001 140 463.1 140 C 496.7800000000001 140 513.6200000000001 123.20000000000002 547.3000000000001 123.20000000000002 C 580.98 123.20000000000002 597.82 123.76000000000002 631.5 126 C 665.1800000000001 128.23999999999998 682.0200000000001 129.92 715.7 134.39999999999998 C 749.3800000000001 138.87999999999997 799.9000000000001 148.39999999999998 799.9000000000001 148.39999999999998" stroke="#000000" stroke-width="2"  stroke-linejoin="round" stroke-linecap="round"></path></g><g class="highcharts-markers" visibility="visible"  transform="translate(125,136) scale(1 1)" clip-path="none"><path fill="#000000" d="M 799 144.39999999999998 C 804.328 144.39999999999998 804.328 152.39999999999998 799 152.39999999999998 C 793.672 152.39999999999998 793.672 144.39999999999998 799 144.39999999999998 Z"></path><path fill="#000000" d="M 715 130.39999999999998 C 720.328 130.39999999999998 720.328 138.39999999999998 715 138.39999999999998 C 709.672 138.39999999999998 709.672 130.39999999999998 715 130.39999999999998 Z"></path><path fill="#000000" d="M 631 122 C 636.328 122 636.328 130 631 130 C 625.672 130 625.672 122 631 122 Z"></path><path fill="#000000" d="M 547 119.20000000000002 C 552.328 119.20000000000002 552.328 127.20000000000002 547 127.20000000000002 C 541.672 127.20000000000002 541.672 119.20000000000002 547 119.20000000000002 Z"></path><path fill="#000000" d="M 463 136 C 468.328 136 468.328 144 463 144 C 457.672 144 457.672 136 463 136 Z"></path><path fill="#000000" d="M 378 102.39999999999999 C 383.328 102.39999999999999 383.328 110.39999999999999 378 110.39999999999999 C 372.672 110.39999999999999 372.672 102.39999999999999 378 102.39999999999999 Z"></path><path fill="#000000" d="M 294 99.60000000000001 C 299.328 99.60000000000001 299.328 107.60000000000001 294 107.60000000000001 C 288.672 107.60000000000001 288.672 99.60000000000001 294 99.60000000000001 Z"></path><path fill="#000000" d="M 210 66 C 215.328 66 215.328 74 210 74 C 204.672 74 204.672 66 210 66 Z"></path><path fill="#000000" d="M 126 52 C 131.328 52 131.328 60 126 60 C 120.672 60 120.672 52 126 52 Z"></path><path fill="#000000" d="M 42 18.400000000000034 C 47.328 18.400000000000034 47.328 26.400000000000034 42 26.400000000000034 C 36.672 26.400000000000034 36.672 18.400000000000034 42 18.400000000000034 Z"></path></g><g class="highcharts-series" visibility="visible"  transform="translate(125,136) scale(1 1)" clip-path="url(#highcharts-67)"><path fill="none" d="M 42.1 0 C 42.1 0 92.62 41.46153846153843 126.30000000000001 56.53846153846152 C 159.98000000000002 71.61538461538461 176.82 64.07692307692314 210.5 75.38461538461544 C 244.18 86.69230769230774 261.02000000000004 101.76923076923069 294.70000000000005 113.07692307692301 C 328.38 124.3846153846153 345.22 120.61538461538461 378.90000000000003 131.92307692307696 C 412.58000000000004 143.23076923076928 429.4200000000001 169.61538461538467 463.1 169.61538461538467 C 496.7800000000001 169.61538461538467 513.6200000000001 150.76923076923072 547.3000000000001 150.76923076923072 C 580.98 150.76923076923072 597.82 150.76923076923072 631.5 150.76923076923072 C 665.1800000000001 150.76923076923072 682.0200000000001 150.76923076923072 715.7 150.76923076923072 C 749.3800000000001 150.76923076923072 799.9000000000001 169.61538461538467 799.9000000000001 169.61538461538467" stroke="#ba0f27" stroke-width="2"  stroke-linejoin="round" stroke-linecap="round"></path></g><g class="highcharts-markers" visibility="visible"  transform="translate(125,136) scale(1 1)" clip-path="none"><path fill="#ba0f27" d="M 799 165.61538461538467 L 803 169.61538461538467 799 173.61538461538467 795 169.61538461538467 Z"></path><path fill="#ba0f27" d="M 715 146.76923076923072 L 719 150.76923076923072 715 154.76923076923072 711 150.76923076923072 Z"></path><path fill="#ba0f27" d="M 631 146.76923076923072 L 635 150.76923076923072 631 154.76923076923072 627 150.76923076923072 Z"></path><path fill="#ba0f27" d="M 547 146.76923076923072 L 551 150.76923076923072 547 154.76923076923072 543 150.76923076923072 Z"></path><path fill="#ba0f27" d="M 463 165.61538461538467 L 467 169.61538461538467 463 173.61538461538467 459 169.61538461538467 Z"></path><path fill="#ba0f27" d="M 378 127.92307692307696 L 382 131.92307692307696 378 135.92307692307696 374 131.92307692307696 Z"></path><path fill="#ba0f27" d="M 294 109.07692307692301 L 298 113.07692307692301 294 117.07692307692301 290 113.07692307692301 Z"></path><path fill="#ba0f27" d="M 210 71.38461538461544 L 214 75.38461538461544 210 79.38461538461544 206 75.38461538461544 Z"></path><path fill="#ba0f27" d="M 126 52.53846153846152 L 130 56.53846153846152 126 60.53846153846152 122 56.53846153846152 Z"></path><path fill="#ba0f27" d="M 42 -4 L 46 0 42 4 38 0 Z"></path></g></g><text x="520" text-anchor="middle" class="highcharts-title"  style="color:#777;font-size:18px;fill:#777;width:976px;" y="24"><tspan style="fill:#ba0f27;font-size:24px;font-weight:bold;font-family: 'lora'">Divorce rate in Maine</tspan><tspan style="font-family: 'lora'" x="520" dy="21"> correlates with </tspan><tspan style="fill:#000000;font-size:24px;font-weight:bold;font-family: 'lora'" x="520" dy="29">Per capita consumption of margarine</tspan></text><g class="highcharts-legend"  transform="translate(357,367)"><g ><g><g class="highcharts-legend-item"  transform="translate(8,3)"><path fill="none" d="M 0 11 L 16 11" stroke="#000000" stroke-width="2"></path><path fill="#000000" d="M 8 7 C 13.328 7 13.328 15 8 15 C 2.6719999999999997 15 2.6719999999999997 7 8 7 Z"></path><text x="21" style="color:#333333;font-size:12px;font-weight:bold;cursor:pointer;fill:#333333;" text-anchor="start"  y="15"><tspan>Margarine consumed</tspan></text></g><g class="highcharts-legend-item"  transform="translate(172.21875,3)"><path fill="none" d="M 0 11 L 16 11" stroke="#ba0f27" stroke-width="2"></path><path fill="#ba0f27" d="M 8 7 L 12 11 8 15 4 11 Z"></path><text x="21" y="15" style="color:#333333;font-size:12px;font-weight:bold;cursor:pointer;fill:#333333;" text-anchor="start" ><tspan>Divorce rate in Maine</tspan></text></g></g></g></g><g class="highcharts-axis-labels highcharts-xaxis-labels" ><text x="167.1" style="color:#000000;cursor:default;font-size:11px;fill:#000000;width:74px;text-overflow:clip;" text-anchor="middle" transform="translate(0,0)" y="351" opacity="1">2000</text><text x="251.29999999999998" style="color:#000000;cursor:default;font-size:11px;fill:#000000;width:74px;text-overflow:clip;" text-anchor="middle" transform="translate(0,0)" y="351" opacity="1">2001</text><text x="335.5" style="color:#000000;cursor:default;font-size:11px;fill:#000000;width:74px;text-overflow:clip;" text-anchor="middle" transform="translate(0,0)" y="351" opacity="1">2002</text><text x="419.7" style="color:#000000;cursor:default;font-size:11px;fill:#000000;width:74px;text-overflow:clip;" text-anchor="middle" transform="translate(0,0)" y="351" opacity="1">2003</text><text x="503.9" style="color:#000000;cursor:default;font-size:11px;fill:#000000;width:74px;text-overflow:clip;" text-anchor="middle" transform="translate(0,0)" y="351" opacity="1">2004</text><text x="588.1" style="color:#000000;cursor:default;font-size:11px;fill:#000000;width:74px;text-overflow:clip;" text-anchor="middle" transform="translate(0,0)" y="351" opacity="1">2005</text><text x="672.3000000000001" style="color:#000000;cursor:default;font-size:11px;fill:#000000;width:74px;text-overflow:clip;" text-anchor="middle" transform="translate(0,0)" y="351" opacity="1">2006</text><text x="756.5" style="color:#000000;cursor:default;font-size:11px;fill:#000000;width:74px;text-overflow:clip;" text-anchor="middle" transform="translate(0,0)" y="351" opacity="1">2007</text><text x="840.7" style="color:#000000;cursor:default;font-size:11px;fill:#000000;width:74px;text-overflow:clip;" text-anchor="middle" transform="translate(0,0)" y="351" opacity="1">2008</text><text x="924.9" style="color:#000000;cursor:default;font-size:11px;fill:#000000;width:74px;text-overflow:clip;" text-anchor="middle" transform="translate(0,0)" y="351" opacity="1">2009</text></g><g class="highcharts-axis-labels highcharts-xaxis-labels" ><text x="167.1" style="color:#ba0f27;cursor:default;font-size:11px;fill:#ba0f27;width:74px;text-overflow:clip;" text-anchor="middle" transform="translate(0,0)" y="121" opacity="1">2000</text><text x="251.29999999999998" style="color:#ba0f27;cursor:default;font-size:11px;fill:#ba0f27;width:74px;text-overflow:clip;" text-anchor="middle" transform="translate(0,0)" y="121" opacity="1">2001</text><text x="335.5" style="color:#ba0f27;cursor:default;font-size:11px;fill:#ba0f27;width:74px;text-overflow:clip;" text-anchor="middle" transform="translate(0,0)" y="121" opacity="1">2002</text><text x="419.7" style="color:#ba0f27;cursor:default;font-size:11px;fill:#ba0f27;width:74px;text-overflow:clip;" text-anchor="middle" transform="translate(0,0)" y="121" opacity="1">2003</text><text x="503.9" style="color:#ba0f27;cursor:default;font-size:11px;fill:#ba0f27;width:74px;text-overflow:clip;" text-anchor="middle" transform="translate(0,0)" y="121" opacity="1">2004</text><text x="588.1" style="color:#ba0f27;cursor:default;font-size:11px;fill:#ba0f27;width:74px;text-overflow:clip;" text-anchor="middle" transform="translate(0,0)" y="121" opacity="1">2005</text><text x="672.3000000000001" style="color:#ba0f27;cursor:default;font-size:11px;fill:#ba0f27;width:74px;text-overflow:clip;" text-anchor="middle" transform="translate(0,0)" y="121" opacity="1">2006</text><text x="756.5" style="color:#ba0f27;cursor:default;font-size:11px;fill:#ba0f27;width:74px;text-overflow:clip;" text-anchor="middle" transform="translate(0,0)" y="121" opacity="1">2007</text><text x="840.7" style="color:#ba0f27;cursor:default;font-size:11px;fill:#ba0f27;width:74px;text-overflow:clip;" text-anchor="middle" transform="translate(0,0)" y="121" opacity="1">2008</text><text x="924.9" style="color:#ba0f27;cursor:default;font-size:11px;fill:#ba0f27;width:74px;text-overflow:clip;" text-anchor="middle" transform="translate(0,0)" y="121" opacity="1">2009</text></g><g class="highcharts-axis-labels highcharts-yaxis-labels" ><text x="982" style="color:#000000;cursor:default;font-size:11px;fill:#000000;width:333px;text-overflow:clip;" text-anchor="start" transform="translate(0,0)" y="336" opacity="1">2lbs</text><text x="982" style="color:#000000;cursor:default;font-size:11px;fill:#000000;width:333px;text-overflow:clip;" text-anchor="start" transform="translate(0,0)" y="280" opacity="1">4lbs</text><text x="982" style="color:#000000;cursor:default;font-size:11px;fill:#000000;width:333px;text-overflow:clip;" text-anchor="start" transform="translate(0,0)" y="224" opacity="1">6lbs</text><text x="982" style="color:#000000;cursor:default;font-size:11px;fill:#000000;width:333px;text-overflow:clip;" text-anchor="start" transform="translate(0,0)" y="168" opacity="1">8lbs</text></g><g class="highcharts-axis-labels highcharts-yaxis-labels" ><text x="110" style="color:#ba0f27;cursor:default;font-size:11px;fill:#ba0f27;width:333px;text-overflow:clip;" text-anchor="end" transform="translate(0,0)" y="336" opacity="1"><tspan>3.96 per 1,000</tspan></text><text x="110" style="color:#ba0f27;cursor:default;font-size:11px;fill:#ba0f27;width:333px;text-overflow:clip;" text-anchor="end" transform="translate(0,0)" y="273" opacity="1"><tspan>4.29 per 1,000</tspan></text><text x="110" style="color:#ba0f27;cursor:default;font-size:11px;fill:#ba0f27;width:333px;text-overflow:clip;" text-anchor="end" transform="translate(0,0)" y="211" opacity="1"><tspan>4.62 per 1,000</tspan></text><text x="110" style="color:#ba0f27;cursor:default;font-size:11px;fill:#ba0f27;width:333px;text-overflow:clip;" text-anchor="end" transform="translate(0,0)" y="149" opacity="1"><tspan>4.95 per 1,000</tspan></text></g><g class="highcharts-tooltip"  style="cursor:default;padding:0;white-space:nowrap;" transform="translate(0,-9999)"><path fill="none" d="M 3 0 L 13 0 C 16 0 16 0 16 3 L 16 13 C 16 16 16 16 13 16 L 3 16 C 0 16 0 16 0 13 L 0 3 C 0 0 0 0 3 0"  stroke="black" stroke-opacity="0.049999999999999996" stroke-width="5" transform="translate(1, 1)"></path><path fill="none" d="M 3 0 L 13 0 C 16 0 16 0 16 3 L 16 13 C 16 16 16 16 13 16 L 3 16 C 0 16 0 16 0 13 L 0 3 C 0 0 0 0 3 0"  stroke="black" stroke-opacity="0.09999999999999999" stroke-width="3" transform="translate(1, 1)"></path><path fill="none" d="M 3 0 L 13 0 C 16 0 16 0 16 3 L 16 13 C 16 16 16 16 13 16 L 3 16 C 0 16 0 16 0 13 L 0 3 C 0 0 0 0 3 0"  stroke="black" stroke-opacity="0.15" stroke-width="1" transform="translate(1, 1)"></path><path fill="rgb(249, 249, 249)" fill-opacity=" .85" d="M 3 0 L 13 0 C 16 0 16 0 16 3 L 16 13 C 16 16 16 16 13 16 L 3 16 C 0 16 0 16 0 13 L 0 3 C 0 0 0 0 3 0"></path><text x="8"  style="font-size:12px;color:#333333;fill:#333333;" transform="translate(0,20)"></text></g><text x="1030" text-anchor="end"  style="cursor:pointer;color:#909090;font-size:9px;fill:#909090;" y="405">tylervigen.com</text></svg>