<?xml version="1.0" standalone="no"?>
<!DOCTYPE svg PUBLIC "-//W3C//DTD SVG 20010904//EN"
 "http://www.w3.org/TR/2001/REC-SVG-20010904/DTD/svg10.dtd">
<svg version="1.0" xmlns="http://www.w3.org/2000/svg"
 width="1224.000000pt" height="1008.000000pt" viewBox="0 0 1224.000000 1008.000000"
 preserveAspectRatio="xMidYMid meet">
<metadata>
Created by potrace 1.15, written by Peter Selinger 2001-2017
</metadata>
<g transform="translate(0.000000,1008.000000) scale(0.100000,-0.100000)"
fill="#000000" stroke="none">
<path d="M7620 9385 l0 -695 565 0 565 0 0 695 0 695 -565 0 -565 0 0 -695z"/>
<path d="M7680 8510 c0 -5 -11 -10 -25 -10 -18 0 -25 -5 -25 -19 0 -14 10 -20
38 -25 49 -8 1360 -8 1485 1 85 5 97 8 97 25 0 16 -8 18 -65 18 -37 0 -65 4
-65 10 0 7 -247 10 -720 10 -473 0 -720 -3 -720 -10z"/>
<path d="M7680 8310 c0 -17 -9 -39 -20 -50 -11 -11 -20 -31 -20 -45 0 -14 9
-30 20 -37 27 -17 26 -45 -1 -44 -32 1 -35 -22 -4 -36 23 -10 26 -17 22 -42
-7 -44 -30 -106 -39 -106 -5 0 -8 -7 -8 -15 0 -8 5 -15 10 -15 6 0 10 -28 10
-65 l0 -65 415 0 414 0 3 173 c2 94 2 218 0 275 l-3 102 -399 0 -400 0 0 -30z"/>
<path d="M6700 7685 l0 -215 215 0 215 0 0 215 0 215 -215 0 -215 0 0 -215z"/>
<path d="M7070 7240 l0 -210 210 0 210 0 0 210 0 210 -210 0 -210 0 0 -210z"/>
<path d="M2990 6845 l0 -265 265 0 265 0 0 265 0 265 -265 0 -265 0 0 -265z"/>
<path d="M8870 6010 l0 -1100 685 0 c450 0 685 3 685 10 0 6 112 10 315 10
l315 0 0 1080 0 1080 -315 0 c-203 0 -315 4 -315 10 0 7 -235 10 -685 10
l-685 0 0 -1100z"/>
<path d="M4460 5910 l0 -1100 1100 0 1100 0 0 1100 0 1100 -1100 0 -1100 0 0
-1100z"/>
<path d="M0 5910 l0 -1000 1100 0 1100 0 0 1000 0 1000 -1100 0 -1100 0 0
-1000z"/>
<path d="M7620 6305 l0 -265 265 0 265 0 0 265 0 265 -265 0 -265 0 0 -265z"/>
<path d="M2720 6382 c0 -16 -8 -32 -20 -40 -12 -7 -20 -8 -20 -2 0 5 -9 10
-20 10 -19 0 -20 -7 -20 -90 0 -83 1 -90 20 -90 18 0 20 7 20 54 0 39 5 60 18
72 16 17 17 13 20 -89 l3 -107 478 0 479 0 4 58 c2 33 2 102 0 155 l-4 97
-479 0 -479 0 0 -28z"/>
<path d="M3740 6380 c0 -16 -4 -30 -10 -30 -5 0 -10 -7 -10 -15 0 -8 4 -15 10
-15 5 0 10 -33 12 -72 l3 -73 35 0 c28 0 36 4 38 22 3 17 -1 20 -17 16 -19 -5
-21 -1 -21 51 0 43 3 56 15 56 8 0 15 7 15 15 0 8 -7 15 -15 15 -10 0 -15 10
-15 30 0 23 -4 30 -20 30 -16 0 -20 -7 -20 -30z"/>
<path d="M2990 5615 l0 -265 265 0 265 0 0 265 0 265 -265 0 -265 0 0 -265z"/>
<path d="M7620 5495 l0 -265 265 0 265 0 0 265 0 265 -265 0 -265 0 0 -265z"/>
<path d="M2550 5018 c0 -40 3 -97 6 -125 l7 -53 638 0 639 0 0 35 c0 33 2 35
35 35 22 0 43 8 56 21 20 20 20 22 5 31 -13 7 -23 5 -36 -7 -15 -13 -23 -14
-39 -5 -12 6 -21 17 -21 25 0 12 14 15 61 15 l62 0 -7 33 c-3 17 -16 40 -27
50 -20 16 -68 17 -700 17 l-679 0 0 -72z m1355 22 c18 -20 17 -20 -23 -20 -43
0 -51 7 -30 28 17 17 32 15 53 -8z"/>
<path d="M160 4435 l0 -35 5840 0 c3887 0 5840 3 5840 10 0 6 25 10 55 10 47
0 55 3 55 19 0 16 -11 19 -82 24 -46 4 -2699 7 -5895 7 l-5813 0 0 -35z"/>
<path d="M8797 4164 c-2 -47 -3 -103 0 -125 l6 -39 682 0 c668 1 683 1 701 21
27 30 4 46 -31 23 -27 -18 -28 -18 -47 7 l-20 24 61 3 c56 3 61 5 61 26 0 13
-10 36 -21 51 -19 23 -28 26 -65 23 l-44 -3 0 37 0 38 -639 0 -638 0 -6 -86z
m1363 -29 c18 -21 9 -27 -36 -23 -36 3 -37 4 -20 21 21 21 40 22 56 2z"/>
<path d="M320 4207 c0 -31 -2 -33 -29 -29 -43 6 -81 -34 -81 -87 0 -100 -2
-99 408 -101 l342 -1 0 126 0 125 -320 0 -320 0 0 -33z m-12 -79 c16 -16 16
-70 0 -86 -16 -16 -23 -15 -42 4 -29 28 -15 94 19 94 6 0 16 -5 23 -12z"/>
<path d="M990 4205 c0 -14 -4 -25 -10 -25 -5 0 -10 -9 -10 -20 0 -11 5 -20 10
-20 6 0 10 -26 10 -59 0 -70 17 -95 58 -85 34 9 34 8 26 28 -3 9 -14 15 -23
14 -13 -2 -17 7 -19 50 -3 47 -1 52 17 52 14 0 21 6 21 20 0 13 -7 20 -20 20
-15 0 -20 7 -20 25 0 18 -5 25 -20 25 -15 0 -20 -7 -20 -25z"/>
<path d="M4471 4154 c-9 -20 -9 -34 1 -61 10 -29 10 -36 -2 -43 -12 -7 -12
-13 -4 -27 10 -17 40 -18 411 -21 l400 -2 6 55 c3 31 3 71 0 90 l-6 35 -397 0
-397 0 -12 -26z"/>
<path d="M5330 4089 c0 -82 2 -89 20 -89 16 0 19 8 22 63 3 53 6 63 26 72 12
5 22 17 22 26 0 12 -11 16 -45 17 l-45 0 0 -89z"/>
<path d="M4480 3655 c0 -69 -3 -85 -15 -85 -8 0 -15 -9 -15 -20 0 -11 7 -20
15 -20 12 0 15 -14 15 -65 0 -51 -3 -65 -15 -65 -17 0 -19 -21 -16 -115 2 -33
9 -70 17 -82 9 -15 14 -51 14 -104 0 -66 -4 -86 -20 -106 -11 -14 -20 -40 -20
-58 0 -18 9 -44 20 -58 16 -21 20 -40 20 -111 0 -70 -3 -86 -15 -86 -12 0 -15
-16 -15 -80 0 -64 3 -80 15 -80 12 0 15 -14 15 -65 0 -36 -4 -65 -9 -65 -15 0
-28 -73 -23 -138 3 -44 8 -62 18 -62 11 0 14 -21 14 -95 0 -78 -3 -95 -15 -95
-12 0 -15 -15 -15 -75 0 -60 3 -75 15 -75 12 0 15 -17 15 -90 0 -73 -3 -90
-15 -90 -12 0 -15 -16 -15 -80 0 -64 3 -80 15 -80 12 0 15 -18 14 -102 0 -57
-3 -97 -6 -90 -2 6 -13 12 -23 12 -18 0 -17 -4 6 -72 29 -87 35 -254 9 -264
-8 -4 -15 -15 -15 -26 0 -14 5 -18 15 -14 22 8 18 -12 -5 -24 -13 -7 -20 -21
-20 -40 0 -19 7 -34 20 -42 17 -11 20 -24 20 -75 0 -47 -4 -63 -14 -63 -18 0
-25 -50 -17 -128 4 -39 13 -67 21 -72 9 -6 687 -10 1693 -10 l1677 0 0 508 c1
279 0 884 0 1345 0 569 3 837 10 837 5 0 10 16 10 35 0 30 3 35 23 35 41 0 67
27 67 69 0 48 -24 71 -73 71 l-37 0 0 170 0 170 -1680 0 -1680 0 0 -85z m3430
-300 c18 -22 3 -55 -26 -55 -21 0 -24 5 -24 35 0 28 4 35 19 35 10 0 24 -7 31
-15z"/>
<path d="M8800 3546 c0 -183 -1 -195 -19 -201 -37 -12 -38 -68 0 -80 10 -4 19
-15 19 -26 0 -16 -3 -18 -19 -10 -18 10 -31 6 -31 -11 0 -5 11 -14 25 -20 24
-11 25 -15 25 -104 0 -87 -1 -92 -20 -87 -19 5 -20 0 -20 -71 0 -60 3 -76 14
-76 11 0 16 15 19 53 2 36 4 25 5 -35 l2 -88 720 0 720 0 0 30 0 30 880 0 880
0 0 173 0 174 29 -5 c16 -2 32 1 35 7 5 7 13 7 26 -1 11 -7 21 -10 23 -8 2 3
2 53 -1 113 -4 97 -6 107 -23 107 -15 0 -19 -7 -19 -32 0 -31 -2 -33 -35 -33
l-35 0 0 198 0 197 -1600 0 -1600 0 0 -194z m-3 -248 c-3 -8 -6 -5 -6 6 -1 11
2 17 5 13 3 -3 4 -12 1 -19z m3262 8 c7 -8 11 -27 9 -43 -2 -22 -8 -28 -28
-28 -20 0 -26 6 -28 28 -3 27 12 57 28 57 4 0 13 -6 19 -14z"/>
<path d="M160 2755 l0 -945 1440 0 1440 0 0 334 c0 215 4 336 10 338 7 2 7 28
0 78 -5 41 -10 315 -10 608 l0 532 -1440 0 -1440 0 0 -945z"/>
<path d="M8760 3550 c0 -11 7 -20 15 -20 8 0 15 9 15 20 0 11 -7 20 -15 20 -8
0 -15 -9 -15 -20z"/>
</g>
</svg>
